<svg width="221" height="31" viewBox="0 0 221 31" fill="none" xmlns="http://www.w3.org/2000/svg">
<path fill-rule="evenodd" clip-rule="evenodd" d="M8.6278 16.5568L12.2434 10.5075L15.3474 15.7034L9.29693 25.8312H21.3907L24.4841 31H0L8.6278 16.5568ZM13.8747 7.77114L16.8551 2.78032L33.7227 31H27.7493L13.8747 7.77114ZM18.5142 0H24.4796L43 31H37.0266L18.5142 0Z" fill="white"/>
<path d="M61.74 27H65.88L59.36 10.2H53.76L47.26 27H51.38L52.42 24.18H60.7L61.74 27ZM53.54 21.16L56.18 13.98H56.94L59.58 21.16H53.54ZM74.705 10.2H66.985V27H74.705C81.225 27 83.705 23.38 83.705 18.6C83.705 13.82 81.225 10.2 74.705 10.2ZM74.685 23.64H70.965L71.005 13.56H74.685C77.945 13.56 79.705 15.36 79.705 18.6C79.705 21.84 77.945 23.64 74.685 23.64ZM85.1959 27H99.3359V23.72H89.1759V20.02H98.9759V17.14H89.1759V13.46H99.3359V10.2H85.1959V27ZM104.443 27H109.823L112.423 16.4H112.803L115.403 27H120.803L124.563 10.2H120.523L117.863 22.74H117.503L114.283 10.2H110.943L107.743 22.74H107.383L104.703 10.2H100.683L104.443 27ZM125.883 27H140.023V23.72H129.863V20.02H139.663V17.14H129.863V13.46H140.023V10.2H125.883V27ZM154.771 18.18V17.92C156.211 17.28 157.091 16.28 157.091 14.5C157.091 12.18 155.571 10.2 150.771 10.2H141.751V27H150.731C155.691 27 157.631 25.04 157.631 22.26C157.631 20.24 156.591 18.92 154.771 18.18ZM150.471 13.32C152.291 13.32 153.271 13.98 153.271 15.2C153.271 16.42 152.291 17.04 150.471 17.04H145.731V13.32H150.471ZM150.671 23.88H145.731V19.56H150.671C152.531 19.56 153.591 20.3 153.591 21.66C153.591 23 152.531 23.88 150.671 23.88ZM171.924 10.2H164.204V27H171.924C178.444 27 180.924 23.38 180.924 18.6C180.924 13.82 178.444 10.2 171.924 10.2ZM171.904 23.64H168.184L168.224 13.56H171.904C175.164 13.56 176.924 15.36 176.924 18.6C176.924 21.84 175.164 23.64 171.904 23.64ZM182.415 27H196.555V23.72H186.395V20.02H196.195V17.14H186.395V13.46H196.555V10.2H182.415V27ZM203.971 27H209.571L216.091 10.2H211.951L207.031 23.22H206.511L201.591 10.2H197.471L203.971 27ZM217.244 27.32C218.424 27.32 219.384 26.36 219.384 25.22C219.384 24.06 218.424 23.1 217.244 23.1C216.084 23.1 215.124 24.06 215.124 25.22C215.124 26.36 216.084 27.32 217.244 27.32Z" fill="white"/>
</svg>
